<svg width="4100" height="3348" viewBox="0 0 4100 3348" fill="none" xmlns="http://www.w3.org/2000/svg">
<path d="M44.2924 2477.62C52.0987 2477.62 58.5216 2479.5 58.5216 2481.67C58.5216 2495.31 26.2094 2488.69 13.4623 2472.38C1.90108 2457.66 0.320047 2434.44 11.1896 2438.59C15.1422 2440.07 21.071 2441.35 24.2331 2441.35C30.8536 2441.35 53.9762 2463.19 53.9762 2469.52C53.9762 2475.15 35.5967 2469.32 25.6165 2460.52C16.3279 2452.32 15.3398 2458.25 24.0355 2469.71C27.494 2474.26 35.992 2477.62 44.2924 2477.62Z" fill="#F0E7AF" fill-opacity="0.5"/>
<path d="M76.6046 2429.89C70.9722 2433.35 70.1817 2483.84 76.6046 2479.89C82.3359 2476.43 83.1264 2425.94 76.6046 2429.89Z" fill="#F0E7AF" fill-opacity="0.5"/>
<path d="M153.877 2447.78C153.877 2456.28 127.889 2477.62 117.514 2477.62C112.968 2477.62 106.447 2478.51 103.087 2479.6C94.6876 2482.16 85.6955 2477.92 85.6955 2471.3C85.6955 2461.91 110.498 2441.26 121.664 2441.26C135.3 2441.26 127.79 2451.43 108.225 2459.54C100.814 2462.6 94.7864 2467.05 94.7864 2469.52C94.7864 2477.82 153.877 2436.61 153.877 2447.78Z" fill="#F0E7AF" fill-opacity="0.5"/>
<path d="M65.3398 2406.08C63.8576 2388.09 70.0829 2386.41 73.5414 2403.81C74.826 2410.62 74.0355 2418.23 71.7627 2420.6C66.9208 2425.54 67.0197 2425.64 65.3398 2406.08Z" fill="#F0E7AF" fill-opacity="0.5"/>
<path d="M35.2015 2360.92C48.4426 2359.93 53.6797 2371.49 53.8774 2401.53C53.8774 2405.88 50.9129 2409.44 47.0592 2409.54C38.7588 2409.54 37.7706 2388.69 45.9722 2384.83C49.0355 2383.35 46.9604 2382.96 41.3279 2384.04C34.6086 2385.33 29.5691 2383.05 26.6046 2377.62C19.6876 2364.67 21.071 2361.91 35.2015 2360.92Z" fill="#F0E7AF" fill-opacity="0.5"/>
<path d="M82.1382 2388.79C78.4821 2392.44 90.8339 2405.09 95.2805 2402.32C108.62 2394.12 85.8932 2385.03 82.1382 2388.79Z" fill="#F0E7AF" fill-opacity="0.5"/>
<path d="M94.7864 2359.54C80.656 2359.54 76.9011 2367.05 86.3872 2376.63C97.7509 2387.9 125.024 2359.54 94.7864 2359.54Z" fill="#F0E7AF" fill-opacity="0.5"/>
<path d="M72.0592 2366.35C66.0315 2362.6 66.0315 2377.72 72.0592 2377.72C77.8892 2377.72 78.1857 2370.11 72.0592 2366.35Z" fill="#F0E7AF" fill-opacity="0.5"/>
<path d="M88.1659 2341.26C96.4663 2334.34 103.284 2339.28 95.8734 2346.69C90.3398 2352.22 60.7944 2355.78 56.5454 2351.43C52.0987 2346.99 53.8774 2329.69 59.411 2324.16C65.7351 2317.84 81.2489 2329.3 81.2489 2340.37C81.2489 2345.8 82.5335 2346 88.1659 2341.26Z" fill="#F0E7AF" fill-opacity="0.5"/>
<path d="M35.7944 2341.16C31.5454 2348.96 32.237 2350.35 40.1422 2350.35C58.4228 2350.45 45.9722 2322.28 35.7944 2341.16Z" fill="#F0E7AF" fill-opacity="0.5"/>
<path d="M1426.29 2493.64C1435.1 2501.37 1442.24 2508.8 1442.24 2510.09C1442.24 2513.56 1432.43 2512.66 1421.23 2508.11C1403.7 2500.97 1382.6 2453.32 1396.96 2453.32C1411.03 2453.32 1442.24 2477.99 1442.24 2489.09C1442.24 2493.94 1438.27 2492.16 1429.06 2483.34C1412.02 2466.99 1404.59 2474.62 1426.29 2493.64Z" fill="#F0E7AF" fill-opacity="0.5"/>
<path d="M1456.5 2457.88C1451.94 2457.88 1447.09 2493.05 1450.36 2502.26C1459.47 2528.22 1462.45 2457.88 1456.5 2457.88Z" fill="#F0E7AF" fill-opacity="0.5"/>
<path d="M1511.78 2444.21C1522.58 2444.21 1511.29 2482.25 1497.22 2493.05C1481.27 2505.33 1479.39 2497.8 1494.64 2482.55C1516.04 2461.15 1512.18 2454.51 1487.61 2478.49C1476.41 2489.48 1469.48 2493.64 1469.48 2489.38C1469.48 2482.65 1505.44 2444.21 1511.78 2444.21Z" fill="#F0E7AF" fill-opacity="0.5"/>
<path d="M1461.26 2384.67C1468.89 2385.46 1469.58 2405.27 1462.64 2426.08C1453.53 2453.72 1451.25 2454.11 1441.05 2429.45C1428.46 2398.73 1431.83 2379.42 1449.17 2382.68C1454.12 2383.58 1459.57 2384.47 1461.26 2384.67Z" fill="#F0E7AF" fill-opacity="0.5"/>
<path d="M1483.94 2406.36C1476.41 2397.25 1478.59 2388.43 1487.11 2393.68C1490.48 2395.76 1492.46 2401.11 1491.67 2405.67C1490.19 2413.1 1489.59 2413.1 1483.94 2406.36Z" fill="#F0E7AF" fill-opacity="0.5"/>
<path d="M1416.38 2388.13C1423.02 2385.66 1424.4 2387.04 1423.21 2395.27C1422.22 2401.81 1418.06 2406.07 1411.52 2406.96C1395.97 2409.24 1399.73 2394.28 1416.38 2388.13Z" fill="#F0E7AF" fill-opacity="0.5"/>
<path d="M1474.14 2348.51C1493.65 2338.1 1530.01 2366.14 1513.07 2378.52C1502.77 2386.05 1484.44 2386.75 1472.85 2380.01C1461.75 2373.57 1467.2 2366.73 1483.45 2366.73C1490.78 2366.73 1496.82 2364.75 1496.82 2362.28C1496.82 2359.8 1490.98 2359.01 1483.75 2360.49C1467.8 2363.66 1461.16 2355.44 1474.14 2348.51Z" fill="#F0E7AF" fill-opacity="0.5"/>
<path d="M1426.29 2352.07C1436.59 2350.69 1437.48 2370.3 1427.28 2376.74C1414.4 2384.96 1373.88 2373.17 1373.88 2361.19C1373.88 2354.55 1383.78 2357.72 1426.29 2352.07Z" fill="#F0E7AF" fill-opacity="0.5"/>
<path d="M1453.73 2363.96C1445.01 2360.59 1440.16 2364.26 1444.32 2371.09C1451.65 2382.98 1466.11 2368.72 1453.73 2363.96Z" fill="#F0E7AF" fill-opacity="0.5"/>
<path d="M1442.93 2310.07C1455.02 2283.71 1474.33 2310.07 1462.94 2337.41C1455.51 2355.14 1449.27 2357.22 1442.33 2344.34C1436.29 2332.95 1436.39 2324.43 1442.93 2310.07Z" fill="#F0E7AF" fill-opacity="0.5"/>
<path d="M1405.78 2327.01C1405.78 2310.26 1425.69 2314.43 1427.67 2331.47C1428.86 2341.27 1427.28 2344.05 1420.54 2344.05C1409.05 2344.05 1405.78 2340.18 1405.78 2327.01Z" fill="#F0E7AF" fill-opacity="0.5"/>
<path d="M1483.15 2322.45C1490.68 2313.14 1496.82 2315.81 1496.82 2328.3C1496.82 2329.29 1492.86 2332.16 1488.01 2334.83C1475.82 2341.27 1473.24 2334.74 1483.15 2322.45Z" fill="#F0E7AF" fill-opacity="0.5"/>
<path d="M2804.02 2489.44C2814.8 2491.42 2817.48 2493.4 2813.12 2496.17C2786.9 2512.79 2745.83 2485.68 2737.51 2446.59C2735.14 2435.4 2797.88 2457.97 2811.74 2473.31C2823.02 2485.78 2808.57 2485.48 2784.82 2472.71C2775.22 2467.57 2765.02 2464.2 2762.15 2465.19C2754.63 2467.77 2786.01 2486.07 2804.02 2489.44Z" fill="#F0E7AF" fill-opacity="0.5"/>
<path d="M2834.6 2469.45C2839.25 2436.99 2846.57 2433.72 2844.89 2464.9C2843.9 2482.81 2841.52 2491.12 2837.47 2491.02C2832.91 2491.02 2832.22 2485.88 2834.6 2469.45Z" fill="#F0E7AF" fill-opacity="0.5"/>
<path d="M2927.52 2445C2927.52 2453.42 2907.63 2473.6 2890.91 2482.12C2869.93 2492.8 2872.2 2492.61 2861.32 2484.69C2851.72 2477.66 2875.47 2450.25 2891.1 2450.35C2901.69 2450.45 2865.97 2476.57 2870.32 2480.93C2871.81 2482.51 2882.89 2474.2 2894.77 2462.42C2915.05 2442.43 2927.52 2435.8 2927.52 2445Z" fill="#F0E7AF" fill-opacity="0.5"/>
<path d="M2837.66 2391.86C2846.17 2393.05 2847.76 2395.92 2847.16 2408.59C2846.08 2431.45 2838.75 2435.7 2829.75 2418.48C2820.54 2400.67 2823.71 2389.88 2837.66 2391.86Z" fill="#F0E7AF" fill-opacity="0.5"/>
<path d="M2811.54 2400.07C2802.53 2400.07 2802.43 2418.28 2811.54 2418.28C2820.54 2418.28 2820.64 2400.07 2811.54 2400.07Z" fill="#F0E7AF" fill-opacity="0.5"/>
<path d="M2860.72 2401.76C2864.78 2397.7 2872.99 2404.53 2872.99 2411.75C2872.99 2415.31 2870.82 2418.28 2868.24 2418.28C2862.8 2418.28 2856.96 2405.52 2860.72 2401.76Z" fill="#F0E7AF" fill-opacity="0.5"/>
<path d="M2788.18 2371.67C2818.86 2358.41 2841.42 2376.52 2811.34 2390.28C2795.9 2397.3 2790.56 2396.91 2777.89 2388.1L2767.3 2380.68L2788.18 2371.67Z" fill="#F0E7AF" fill-opacity="0.5"/>
<path d="M2882.69 2372.66C2891.9 2380.28 2892.49 2382.36 2886.65 2386.22C2876.26 2393.25 2854.78 2391.86 2851.82 2384.14C2844.29 2364.55 2864.19 2357.12 2882.69 2372.66Z" fill="#F0E7AF" fill-opacity="0.5"/>
<path d="M2836.08 2368.21C2831.13 2368.21 2829.45 2381.87 2838.65 2381.87C2848.25 2381.87 2840.83 2368.21 2836.08 2368.21Z" fill="#F0E7AF" fill-opacity="0.5"/>
<path d="M2842.71 2310.31C2849.84 2312.59 2851.91 2342.87 2845.78 2354.35C2839.94 2365.34 2828.26 2366.62 2824.5 2356.63C2820.84 2347.13 2836.18 2308.14 2842.71 2310.31Z" fill="#F0E7AF" fill-opacity="0.5"/>
<path d="M2805.01 2340.89C2811.54 2340.89 2814.01 2343.37 2812.92 2348.81C2810.65 2360.69 2795.6 2361.97 2795.6 2350.3C2795.6 2343.86 2798.47 2340.89 2805.01 2340.89Z" fill="#F0E7AF" fill-opacity="0.5"/>
<path d="M2859.14 2345.55C2864.38 2337.33 2870.52 2342.48 2866.86 2352.08C2865.37 2355.94 2862.01 2359.1 2859.44 2359.1C2853.7 2359.1 2853.6 2354.35 2859.14 2345.55Z" fill="#F0E7AF" fill-opacity="0.5"/>
<path d="M104.221 798.645C119.931 773.451 166.368 775.921 155.598 801.412C140.482 837.277 89.6972 839.648 89.6972 823.544C89.6972 817.517 122.796 802.894 136.431 802.894C151.547 802.894 145.224 783.627 112.026 800.819C98.8857 807.636 98.6882 807.537 104.221 798.645Z" fill="#F0E7AF" fill-opacity="0.5"/>
<path d="M36.3439 806.055C20.9307 792.124 18.0654 801.115 32.9846 816.627C50.275 834.609 36.6402 835.597 17.4726 817.714C-3.27594 798.349 -5.35078 784.714 12.7301 786.987C29.5265 789.16 57.8828 807.142 57.8828 815.738C57.8828 822.457 51.3618 819.591 36.3439 806.055Z" fill="#F0E7AF" fill-opacity="0.5"/>
<path d="M71.6163 786.987C63.8109 791.828 66.4786 825.618 74.6792 825.618C76.1612 825.618 78.1373 782.936 71.6163 786.987Z" fill="#F0E7AF" fill-opacity="0.5"/>
<path d="M69.5414 730.175C76.5564 730.175 78.5325 741.241 76.6552 771.079C76.0624 780.762 69.4427 783.232 64.7002 775.427C52.6463 756.061 55.5115 730.175 69.5414 730.175Z" fill="#F0E7AF" fill-opacity="0.5"/>
<path d="M43.5564 744.798C36.245 747.169 31.5026 768.511 40.4936 765.546C47.805 763.175 52.6462 741.834 43.5564 744.798Z" fill="#F0E7AF" fill-opacity="0.5"/>
<path d="M91.9696 743.81C85.0534 743.81 82.6822 753.394 88.2151 758.927C100.17 770.981 102.838 743.81 91.9696 743.81Z" fill="#F0E7AF" fill-opacity="0.5"/>
<path d="M29.1313 710.81C41.9756 702.708 58.1792 723.654 47.4097 734.424C39.6044 742.229 28.5385 740.154 17.8678 728.792C-5.35076 704.19 19.0535 717.133 29.1313 710.81Z" fill="#F0E7AF" fill-opacity="0.5"/>
<path d="M107.284 717.528C118.844 724.84 120.721 728.002 116.571 733.041C107.58 743.909 80.6073 734.819 80.6073 720.888C80.6073 708.735 91.278 707.352 107.284 717.528Z" fill="#F0E7AF" fill-opacity="0.5"/>
<path d="M64.7989 716.639C55.8079 716.639 55.8079 725.729 64.7989 725.729C73.79 725.729 73.79 716.639 64.7989 716.639Z" fill="#F0E7AF" fill-opacity="0.5"/>
<path d="M61.5385 670.301C69.8379 662.002 80.3109 678.502 76.3588 693.52C71.0235 713.379 53.6342 712.094 55.0175 691.939C55.5115 683.046 58.4756 673.364 61.5385 670.301Z" fill="#F0E7AF" fill-opacity="0.5"/>
<path d="M35.9486 680.28C42.6672 680.28 44.5445 682.849 43.4576 690.457C41.9756 700.93 29.0325 706.759 24.1912 699.151C19.5475 691.642 26.5624 680.28 35.9486 680.28Z" fill="#F0E7AF" fill-opacity="0.5"/>
<path d="M92.6612 679.687C100.269 673.364 101.257 674.154 105.11 690.457C107.877 701.918 106.988 703.005 94.8349 702.906C80.4097 702.906 79.3229 690.753 92.6612 679.687Z" fill="#F0E7AF" fill-opacity="0.5"/>
<path d="M1511.09 763.897C1518 763.897 1511.09 805.287 1502.4 815.956C1492.52 828.106 1463.47 837.095 1463.57 828.007C1463.57 825.143 1465.06 822.871 1466.93 822.871C1472.66 822.871 1499.83 795.508 1499.83 789.778C1499.73 786.716 1492.71 791.952 1484.12 801.336C1469.2 817.536 1458.93 822.871 1458.93 814.474C1458.93 810.226 1506.64 763.897 1511.09 763.897Z" fill="#F0E7AF" fill-opacity="0.5"/>
<path d="M1386.33 797.187C1386.33 800.546 1391.46 805.979 1397.69 809.337C1422.78 822.772 1400.25 826.822 1385.14 818.03C1376.84 813.19 1373.98 791.161 1381.78 791.161C1384.25 791.161 1386.33 793.828 1386.33 797.187Z" fill="#F0E7AF" fill-opacity="0.5"/>
<path d="M1400.75 798.175C1405.49 793.038 1419.81 799.163 1425.94 809.041C1433.15 820.5 1427.12 823.858 1417.54 813.684C1406.97 802.521 1396.6 802.62 1400.75 798.175Z" fill="#F0E7AF" fill-opacity="0.5"/>
<path d="M1445.3 782.073C1439.27 782.073 1439.37 822.969 1445.3 822.969C1451.32 822.969 1451.32 782.073 1445.3 782.073Z" fill="#F0E7AF" fill-opacity="0.5"/>
<path d="M1442.53 736.633C1449.84 736.633 1454.39 746.314 1454.39 762.02C1454.39 772.294 1446.09 776.739 1439.27 769.923C1433.25 763.996 1436.01 736.633 1442.53 736.633Z" fill="#F0E7AF" fill-opacity="0.5"/>
<path d="M1420.7 745.721C1424.65 745.721 1427.12 748.191 1426.13 751.154C1423.37 759.551 1413.59 760.934 1413.49 752.933C1413.49 748.981 1416.75 745.721 1420.7 745.721Z" fill="#F0E7AF" fill-opacity="0.5"/>
<path d="M1479.28 734.756C1470.59 736.93 1468.41 739.696 1470.49 746.215C1471.97 750.957 1471.08 754.809 1468.32 754.809C1465.65 754.809 1463.47 750.759 1463.47 745.721C1463.47 740.683 1461.4 736.633 1458.93 736.633C1452.81 736.633 1453.2 730.904 1460.21 721.322C1464.96 714.802 1468.32 714.21 1478.39 718.062C1493.9 723.89 1494.29 731.003 1479.28 734.756Z" fill="#F0E7AF" fill-opacity="0.5"/>
<path d="M1411.12 715.197C1429.59 709.468 1438.38 715.198 1431.37 728.237C1425.54 739.103 1406.08 739.103 1400.25 728.237C1396.5 721.125 1398.08 719.149 1411.12 715.197Z" fill="#F0E7AF" fill-opacity="0.5"/>
<path d="M1444.31 669.659C1452.11 666.992 1460.61 688.526 1457.15 702.257C1453.99 715.099 1444.8 717.47 1436.51 707.591C1430.28 699.985 1435.91 672.425 1444.31 669.659Z" fill="#F0E7AF" fill-opacity="0.5"/>
<path d="M1409.84 698.404C1411.61 684.081 1420.41 682.501 1420.41 696.528C1420.41 701.961 1417.64 707.295 1414.38 708.382C1410.13 709.765 1408.85 706.801 1409.84 698.404Z" fill="#F0E7AF" fill-opacity="0.5"/>
<path d="M1467.52 691.786C1472.56 683.982 1479.18 693.07 1475.43 702.751C1474.04 706.406 1470.78 709.369 1468.12 709.271C1462.49 709.271 1462.19 700.281 1467.52 691.786Z" fill="#F0E7AF" fill-opacity="0.5"/>
<path d="M2768.97 822.018C2776.49 826.469 2782.62 832.007 2782.62 834.38C2782.62 851.984 2735.25 825.381 2733.96 807.085C2732.58 789.086 2757.9 788.987 2777.08 806.887C2791.22 820.04 2789.74 827.754 2775.2 816.282C2753.15 798.877 2746.92 808.964 2768.97 822.018Z" fill="#F0E7AF" fill-opacity="0.5"/>
<path d="M2805.37 788.69C2799.83 788.69 2798.54 835.666 2805.37 825.084C2811.3 815.887 2811.2 788.69 2805.37 788.69Z" fill="#F0E7AF" fill-opacity="0.5"/>
<path d="M2847 794.328C2877.36 770.988 2893.78 787.108 2866.98 813.909C2859.66 821.227 2850.76 825.084 2840.87 825.084H2825.94C2832.17 821.326 2865.79 802.14 2862.73 799.075C2861.34 797.69 2855.01 800.064 2848.49 804.316C2828.11 817.667 2826.93 809.755 2847 794.328Z" fill="#F0E7AF" fill-opacity="0.5"/>
<path d="M2796.66 734.1C2803.29 734.1 2810.61 752.099 2809.12 764.955C2806.95 783.746 2793.5 783.449 2789.94 764.461C2786.87 748.242 2790.04 734.1 2796.66 734.1Z" fill="#F0E7AF" fill-opacity="0.5"/>
<path d="M2764.42 750.418C2764.42 755.857 2766.3 756.154 2774.02 752C2792.71 742.11 2764.42 731.628 2764.42 750.418Z" fill="#F0E7AF" fill-opacity="0.5"/>
<path d="M2826.33 734.298C2823.56 734.397 2824.95 736.473 2829.3 739.045C2839.68 745.077 2840.08 752.297 2828.21 752.297C2813.18 752.297 2822.87 734.1 2814.56 734.1C2806.45 734.1 2809.82 716.398 2818.82 711.552C2830.09 705.519 2845.02 705.519 2848.78 711.651C2851.95 716.793 2834.74 734.1 2826.33 734.298Z" fill="#F0E7AF" fill-opacity="0.5"/>
<path d="M2768.97 708.486C2782.32 709.772 2784.9 711.848 2784.9 720.947C2784.9 735.386 2766.5 737.561 2750.78 725.002C2736.53 713.629 2744.74 706.112 2768.97 708.486Z" fill="#F0E7AF" fill-opacity="0.5"/>
<path d="M2795.28 665.17C2805.66 654.785 2815.85 664.972 2812.98 682.773C2810.01 701.069 2799.23 715.31 2794.49 707.497C2789.44 699.387 2790.04 670.411 2795.28 665.17Z" fill="#F0E7AF" fill-opacity="0.5"/>
<path d="M2767.98 687.916C2772.34 683.564 2774.81 683.465 2779.06 687.718C2782.52 691.179 2782.92 694.739 2780.15 697.508C2777.48 700.179 2773.23 700.277 2769.07 697.706C2763.73 694.443 2763.53 692.366 2767.98 687.916Z" fill="#F0E7AF" fill-opacity="0.5"/>
<path d="M2819.01 695.926C2819.01 701.365 2820.89 701.662 2828.61 697.508C2847.2 687.52 2819.01 677.037 2819.01 695.926Z" fill="#F0E7AF" fill-opacity="0.5"/>
<path d="M725.654 1641.15C736.928 1648.86 746.125 1656.18 746.125 1657.27C746.125 1663.1 728.917 1654.89 713.688 1641.84C697.172 1627.7 705.479 1627.3 725.654 1641.15Z" fill="#F0E7AF" fill-opacity="0.5"/>
<path d="M848.581 1634.82C847.691 1637.49 837.702 1644.21 826.23 1649.55C793.793 1664.78 769.563 1659.64 799.627 1644.01C812.682 1637.19 846.009 1604.85 839.977 1604.85C838.098 1604.85 826.428 1613.36 814.066 1623.74C790.232 1643.82 778.068 1644.61 796.562 1624.83C808.528 1612.07 844.427 1586.65 850.459 1586.65C853.822 1586.65 852.437 1622.06 848.581 1634.82Z" fill="#F0E7AF" fill-opacity="0.5"/>
<path d="M715.962 1609.4C731.39 1609.4 737.62 1614.25 752.257 1637.78C762.146 1653.7 756.707 1653.61 734.456 1637.49C724.665 1630.46 713.094 1623.44 708.743 1621.76C695.491 1616.82 699.743 1609.4 715.962 1609.4Z" fill="#F0E7AF" fill-opacity="0.5"/>
<path d="M769.761 1612.66C774.014 1605.94 774.211 1606.53 775.497 1630.96C776.09 1641.54 775.002 1650.24 773.222 1650.24C768.377 1650.24 765.607 1619.29 769.761 1612.66Z" fill="#F0E7AF" fill-opacity="0.5"/>
<path d="M780.244 1578.25C779.651 1584.08 778.859 1591.4 778.563 1594.57C777.475 1605.54 768.377 1600.1 761.849 1584.38C753.443 1564.3 753.542 1560.84 762.838 1557.28C768.574 1555.11 769.168 1553.13 765.113 1549.07C757.696 1541.66 758.586 1536.51 767.19 1536.51C772.431 1536.51 773.915 1539.58 772.53 1547C769.464 1562.82 781.925 1562.13 780.244 1578.25Z" fill="#F0E7AF" fill-opacity="0.5"/>
<path d="M743.455 1563.91C747.015 1563.91 749.488 1566.97 748.894 1570.73C746.817 1584.77 737.126 1589.23 737.027 1576.17C737.027 1568.65 739.499 1563.91 743.455 1563.91Z" fill="#F0E7AF" fill-opacity="0.5"/>
<path d="M794.386 1558.37C796.957 1560.15 800.419 1565.09 802.001 1569.35C805.957 1580.13 797.65 1584.18 792.309 1574.09C781.134 1553.43 783.903 1534.24 798.045 1534.24C815.648 1534.24 818.417 1544.33 802.396 1550.36C795.177 1553.13 791.716 1556.59 794.386 1558.37Z" fill="#F0E7AF" fill-opacity="0.5"/>
<path d="M730.994 1534.04C754.235 1530.98 754.235 1530.98 751.96 1542.84C749.29 1556.69 727.335 1559.66 711.907 1548.28C700.337 1539.78 703.106 1537.7 730.994 1534.04Z" fill="#F0E7AF" fill-opacity="0.5"/>
<path d="M732.478 1512.78C732.478 1500.42 748.004 1504.47 749.883 1517.33C750.773 1523.66 748.993 1527.51 744.938 1527.51C736.236 1527.51 732.478 1523.06 732.478 1512.78Z" fill="#F0E7AF" fill-opacity="0.5"/>
<path d="M766.201 1482.32C776.783 1473.62 787.661 1492.8 781.727 1509.71C776.486 1524.55 773.717 1527.12 765.509 1524.15C757.696 1521.38 758.289 1488.95 766.201 1482.32Z" fill="#F0E7AF" fill-opacity="0.5"/>
<path d="M791.815 1509.02C798.342 1496.76 805.264 1498.04 805.264 1511.59C805.264 1519.9 802.891 1522.97 796.166 1522.97C785.782 1522.97 785.288 1521.28 791.815 1509.02Z" fill="#F0E7AF" fill-opacity="0.5"/>
<path d="M2148.2 1617.15C2142.17 1620.91 2142.27 1651.23 2148.2 1651.23C2154.02 1651.23 2154.52 1613.3 2148.2 1617.15Z" fill="#F0E7AF" fill-opacity="0.5"/>
<path d="M2104.83 1631.18C2111.05 1632.76 2118.46 1636.91 2121.32 1640.37C2128.44 1648.86 2122.51 1648.17 2099.69 1638C2079.14 1628.71 2066.99 1612.61 2074.7 1604.9C2078.35 1601.25 2119.74 1616.56 2133.87 1626.83C2143.65 1633.85 2126.46 1635.33 2115.1 1628.41C2098.7 1618.54 2093.66 1617.45 2093.66 1623.97C2093.66 1626.34 2098.7 1629.6 2104.83 1631.18Z" fill="#F0E7AF" fill-opacity="0.5"/>
<path d="M2220.21 1569.93C2227.33 1589.19 2198.97 1637.6 2180.6 1637.6C2176.25 1637.6 2170.32 1640.07 2167.26 1642.94C2160.05 1650.15 2158.86 1641.65 2170.92 1630.69C2183.17 1619.62 2182.77 1610.83 2170.92 1621.6C2148.29 1642.15 2163.31 1613.2 2189 1586.92C2215.47 1559.85 2216.36 1559.36 2220.21 1569.93Z" fill="#F0E7AF" fill-opacity="0.5"/>
<path d="M2142.07 1552.74C2151.06 1549.28 2161.83 1562.32 2161.83 1576.65C2161.83 1592.36 2151.46 1598.09 2142.27 1587.52C2132.49 1575.96 2132.29 1556.5 2142.07 1552.74Z" fill="#F0E7AF" fill-opacity="0.5"/>
<path d="M2102.56 1533.97C2127.45 1515.6 2135.25 1520.54 2127.75 1549.98C2124.78 1561.73 2120.04 1572.1 2117.08 1572.99C2110.16 1575.27 2110.36 1563.61 2117.27 1556.69C2121.52 1552.45 2120.34 1551.26 2111.64 1551.16C2091.19 1551.06 2087.93 1544.84 2102.56 1533.97Z" fill="#F0E7AF" fill-opacity="0.5"/>
<path d="M2187.61 1541.87C2177.73 1545.73 2175.46 1548.79 2177.73 1555.9C2179.71 1562.13 2178.52 1564.99 2173.98 1564.79C2165.98 1564.79 2159.75 1551.16 2167.66 1551.06C2170.72 1551.06 2168.64 1547.51 2163.11 1543.16C2151.95 1534.56 2154.22 1526.86 2169.14 1522.22C2180.6 1518.66 2189.98 1528.44 2200.45 1536.94L2187.61 1541.87Z" fill="#F0E7AF" fill-opacity="0.5"/>
<path d="M2143.65 1533.18C2137.63 1533.18 2137.63 1548.3 2143.65 1544.54C2149.78 1540.69 2149.48 1533.18 2143.65 1533.18Z" fill="#F0E7AF" fill-opacity="0.5"/>
<path d="M2152.25 1493.96C2155.9 1498.41 2156.1 1503.74 2152.94 1512.14C2144.94 1533.48 2131.8 1524.49 2136.83 1501.17C2140.09 1486.36 2144.34 1484.38 2152.25 1493.96Z" fill="#F0E7AF" fill-opacity="0.5"/>
<path d="M2117.57 1497.91C2109.77 1495.35 2109.77 1520.93 2117.57 1518.36C2124.98 1515.89 2125.08 1500.48 2117.57 1497.91Z" fill="#F0E7AF" fill-opacity="0.5"/>
<path d="M2162.62 1511.94C2164.5 1502.36 2175.46 1498.31 2175.46 1507.3C2175.46 1510.95 2172.3 1515.3 2168.25 1516.78C2163.31 1518.66 2161.63 1517.18 2162.62 1511.94Z" fill="#F0E7AF" fill-opacity="0.5"/>
<path d="M3466.1 1641.15C3477.37 1648.86 3486.57 1656.18 3486.57 1657.27C3486.57 1663.1 3469.36 1654.89 3454.13 1641.84C3437.62 1627.7 3445.93 1627.3 3466.1 1641.15Z" fill="#F0E7AF" fill-opacity="0.5"/>
<path d="M3589.03 1634.82C3588.14 1637.49 3578.15 1644.21 3566.68 1649.55C3534.24 1664.78 3510.01 1659.64 3540.07 1644.01C3553.13 1637.19 3586.46 1604.85 3580.42 1604.85C3578.54 1604.85 3566.87 1613.36 3554.51 1623.74C3530.68 1643.82 3518.51 1644.61 3537.01 1624.83C3548.97 1612.07 3584.87 1586.65 3590.91 1586.65C3594.27 1586.65 3592.88 1622.06 3589.03 1634.82Z" fill="#F0E7AF" fill-opacity="0.5"/>
<path d="M3456.41 1609.4C3471.84 1609.4 3478.07 1614.25 3492.7 1637.78C3502.59 1653.7 3497.15 1653.61 3474.9 1637.49C3465.11 1630.46 3453.54 1623.44 3449.19 1621.76C3435.94 1616.82 3440.19 1609.4 3456.41 1609.4Z" fill="#F0E7AF" fill-opacity="0.5"/>
<path d="M3510.21 1612.66C3514.46 1605.94 3514.66 1606.53 3515.94 1630.96C3516.54 1641.54 3515.45 1650.24 3513.67 1650.24C3508.82 1650.24 3506.05 1619.29 3510.21 1612.66Z" fill="#F0E7AF" fill-opacity="0.5"/>
<path d="M3520.69 1578.25C3520.1 1584.08 3519.31 1591.4 3519.01 1594.57C3517.92 1605.54 3508.82 1600.1 3502.3 1584.38C3493.89 1564.3 3493.99 1560.84 3503.29 1557.28C3509.02 1555.11 3509.61 1553.13 3505.56 1549.07C3498.14 1541.66 3499.03 1536.51 3507.64 1536.51C3512.88 1536.51 3514.36 1539.58 3512.98 1547C3509.91 1562.82 3522.37 1562.13 3520.69 1578.25Z" fill="#F0E7AF" fill-opacity="0.5"/>
<path d="M3483.9 1563.91C3487.46 1563.91 3489.93 1566.97 3489.34 1570.73C3487.26 1584.77 3477.57 1589.23 3477.47 1576.17C3477.47 1568.65 3479.95 1563.91 3483.9 1563.91Z" fill="#F0E7AF" fill-opacity="0.5"/>
<path d="M3534.83 1558.37C3537.4 1560.15 3540.87 1565.09 3542.45 1569.35C3546.4 1580.13 3538.1 1584.18 3532.76 1574.09C3521.58 1553.43 3524.35 1534.24 3538.49 1534.24C3556.1 1534.24 3558.86 1544.33 3542.84 1550.36C3535.62 1553.13 3532.16 1556.59 3534.83 1558.37Z" fill="#F0E7AF" fill-opacity="0.5"/>
<path d="M3471.44 1534.04C3494.68 1530.98 3494.68 1530.98 3492.41 1542.84C3489.74 1556.69 3467.78 1559.66 3452.35 1548.28C3440.78 1539.78 3443.55 1537.7 3471.44 1534.04Z" fill="#F0E7AF" fill-opacity="0.5"/>
<path d="M3472.92 1512.78C3472.92 1500.42 3488.45 1504.47 3490.33 1517.33C3491.22 1523.66 3489.44 1527.51 3485.39 1527.51C3476.68 1527.51 3472.92 1523.06 3472.92 1512.78Z" fill="#F0E7AF" fill-opacity="0.5"/>
<path d="M3506.65 1482.32C3517.23 1473.62 3528.11 1492.8 3522.17 1509.71C3516.93 1524.55 3514.16 1527.12 3505.96 1524.15C3498.14 1521.38 3498.74 1488.95 3506.65 1482.32Z" fill="#F0E7AF" fill-opacity="0.5"/>
<path d="M3532.26 1509.02C3538.79 1496.76 3545.71 1498.04 3545.71 1511.59C3545.71 1519.9 3543.34 1522.97 3536.61 1522.97C3526.23 1522.97 3525.73 1521.28 3532.26 1509.02Z" fill="#F0E7AF" fill-opacity="0.5"/>
<path d="M693.969 3326.46C719.607 3340.21 720.597 3341.2 713.767 3345.56C694.662 3357.64 632.598 3311.61 647.743 3296.46C652.395 3291.81 671.994 3300.92 675.954 3309.63C678.329 3314.87 686.446 3322.4 693.969 3326.46Z" fill="#F0E7AF" fill-opacity="0.5"/>
<path d="M827.502 3274.49C829.68 3292.8 812.555 3324.57 794.54 3335.66C759.498 3357.34 756.727 3346.65 789.689 3316.46C819.385 3289.24 819.286 3281.71 789.491 3306.16C759.201 3330.91 758.806 3322 788.897 3293.1C803.053 3279.54 814.634 3266.07 814.634 3263.1C814.634 3251.92 826.017 3262.11 827.502 3274.49Z" fill="#F0E7AF" fill-opacity="0.5"/>
<path d="M741.78 3297.25C744.551 3295.47 746.333 3303.29 746.333 3317.45C746.333 3341.4 744.65 3345.56 739.998 3333.29C735.643 3322 736.732 3300.32 741.78 3297.25Z" fill="#F0E7AF" fill-opacity="0.5"/>
<path d="M680.507 3303.79C683.576 3298.94 714.559 3313.78 723.368 3324.38C726.635 3328.34 728.615 3332.2 727.625 3332.89C723.665 3335.86 678.131 3307.65 680.507 3303.79Z" fill="#F0E7AF" fill-opacity="0.5"/>
<path d="M734.95 3233.51C742.869 3233.51 744.057 3236.58 744.057 3255.88C744.057 3281.71 736.435 3287.75 728.417 3268.25C720.597 3249.44 723.665 3233.51 734.95 3233.51Z" fill="#F0E7AF" fill-opacity="0.5"/>
<path d="M708.223 3244.89C712.282 3244.89 714.559 3248.16 713.668 3252.51C711.886 3261.62 702.779 3265.48 698.622 3258.75C694.662 3252.31 699.81 3244.89 708.223 3244.89Z" fill="#F0E7AF" fill-opacity="0.5"/>
<path d="M757.618 3240.53C761.379 3234.5 773.654 3239.94 773.654 3247.66C773.654 3254.99 761.874 3256.27 757.717 3249.44C756.232 3246.97 756.133 3242.91 757.618 3240.53Z" fill="#F0E7AF" fill-opacity="0.5"/>
<path d="M687.733 3206.78C716.934 3200.94 723.566 3202.82 723.566 3216.88C723.566 3235.98 706.739 3242.51 687.733 3230.93C669.619 3219.85 669.619 3210.44 687.733 3206.78Z" fill="#F0E7AF" fill-opacity="0.5"/>
<path d="M801.766 3222.12C803.745 3222.12 805.428 3224 805.428 3226.18C805.428 3238.26 754.054 3233.11 751.678 3220.84C747.62 3199.75 769.496 3195.5 788.897 3213.61C793.946 3218.26 799.687 3222.12 801.766 3222.12Z" fill="#F0E7AF" fill-opacity="0.5"/>
<path d="M736.93 3213.12C731.782 3213.12 729.802 3222.22 739.701 3222.22C749.501 3222.12 742.176 3213.12 736.93 3213.12Z" fill="#F0E7AF" fill-opacity="0.5"/>
<path d="M748.709 3155.9C757.915 3167.98 757.222 3187.28 747.125 3196.39C732.079 3210.05 723.467 3205.39 723.764 3183.82C723.863 3162.04 739.8 3144.22 748.709 3155.9Z" fill="#F0E7AF" fill-opacity="0.5"/>
<path d="M700.601 3175.01C707.036 3168.57 716.439 3178.37 712.876 3187.77C711.391 3191.64 708.322 3194.9 705.947 3194.9C699.315 3194.9 695.355 3180.25 700.601 3175.01Z" fill="#F0E7AF" fill-opacity="0.5"/>
<path d="M769.595 3178.47C778.999 3169.86 779.098 3169.96 777.514 3181.14C776.623 3187.48 772.367 3193.12 768.011 3194.01C757.222 3195.99 757.915 3188.96 769.595 3178.47Z" fill="#F0E7AF" fill-opacity="0.5"/>
<path d="M2088.91 3295.37C2106.47 3295.37 2127.08 3312.04 2116.53 3317.66C2089.8 3331.96 2047.69 3303.26 2047.69 3270.61C2047.69 3255.13 2103.81 3268.64 2119.78 3287.87C2139.21 3311.44 2092.96 3285.6 2070.37 3279.69L2059.03 3276.73C2066.43 3283.14 2078.95 3295.37 2088.91 3295.37Z" fill="#F0E7AF" fill-opacity="0.5"/>
<path d="M2147.49 3268.25C2142.37 3268.25 2139.7 3303.36 2144.24 3311.54C2158.15 3336.39 2152.82 3268.25 2147.49 3268.25Z" fill="#F0E7AF" fill-opacity="0.5"/>
<path d="M2235.76 3264.01C2233 3286.1 2228.36 3293.2 2210.42 3302.47C2183.99 3316.18 2170.87 3311.05 2191.09 3294.97C2213.08 3277.62 2211.5 3279.19 2212.59 3271.99C2213.87 3263.71 2234.38 3236.39 2239.31 3236.39C2244.14 3236.39 2238.92 3238.86 2235.76 3264.01Z" fill="#F0E7AF" fill-opacity="0.5"/>
<path d="M2207.85 3268.15L2199.17 3278.31C2178.96 3302.17 2167.02 3305.13 2174.52 3291.13C2180.04 3280.87 2197.89 3273.08 2207.85 3268.15Z" fill="#F0E7AF" fill-opacity="0.5"/>
<path d="M2142.47 3231.86C2144.63 3231.86 2147.79 3237.28 2149.47 3243.89C2152.52 3255.82 2147.4 3266.57 2141.48 3260.65C2136.94 3256.12 2137.73 3231.86 2142.47 3231.86Z" fill="#F0E7AF" fill-opacity="0.5"/>
<path d="M2124.81 3241.03C2118.8 3241.03 2118.8 3250.1 2124.81 3250.1C2130.83 3250.1 2130.83 3241.03 2124.81 3241.03Z" fill="#F0E7AF" fill-opacity="0.5"/>
<path d="M2163.37 3236.49C2153.12 3236.49 2161.7 3245.56 2163.37 3245.56C2165.05 3245.56 2173.63 3236.49 2163.37 3236.49Z" fill="#F0E7AF" fill-opacity="0.5"/>
<path d="M2108.34 3215.58C2117.42 3212.13 2129.84 3217.65 2132.8 3226.53C2135.36 3234.03 2119.29 3233.24 2108.64 3225.35C2100.06 3219.03 2099.96 3218.84 2108.34 3215.58Z" fill="#F0E7AF" fill-opacity="0.5"/>
<path d="M2195.13 3217.75C2197.59 3218.15 2196.61 3220.42 2192.86 3222.88C2168.01 3238.86 2140.59 3209.96 2162.98 3191.42C2171.95 3184.02 2176.59 3193.1 2168.11 3201.58C2162.19 3207.5 2162.58 3208.68 2171.46 3211.54C2182.41 3215.09 2188.13 3216.57 2195.13 3217.75Z" fill="#F0E7AF" fill-opacity="0.5"/>
<path d="M2147.1 3179.59C2149.86 3181.26 2152.03 3187.38 2152.03 3193.2C2152.03 3208.48 2139.21 3211.84 2135.66 3197.44C2132.5 3185.01 2139.11 3174.66 2147.1 3179.59Z" fill="#F0E7AF" fill-opacity="0.5"/>
<path d="M2111.99 3197.14C2114.26 3185.8 2124.81 3184.22 2124.81 3195.27C2124.81 3200.89 2121.85 3204.73 2117.61 3204.73C2113.47 3204.73 2111.1 3201.58 2111.99 3197.14Z" fill="#F0E7AF" fill-opacity="0.5"/>
<path d="M3509.86 3326.46C3535.49 3340.21 3536.48 3341.2 3529.65 3345.56C3510.55 3357.64 3448.49 3311.61 3463.63 3296.46C3468.28 3291.81 3487.88 3300.92 3491.84 3309.63C3494.22 3314.87 3502.33 3322.4 3509.86 3326.46Z" fill="#F0E7AF" fill-opacity="0.5"/>
<path d="M3643.39 3274.49C3645.57 3292.8 3628.44 3324.57 3610.43 3335.66C3575.39 3357.34 3572.61 3346.65 3605.58 3316.46C3635.27 3289.24 3635.17 3281.71 3605.38 3306.16C3575.09 3330.91 3574.69 3322 3604.79 3293.1C3618.94 3279.54 3630.52 3266.07 3630.52 3263.1C3630.52 3251.92 3641.91 3262.11 3643.39 3274.49Z" fill="#F0E7AF" fill-opacity="0.5"/>
<path d="M3557.67 3297.25C3560.44 3295.47 3562.22 3303.29 3562.22 3317.45C3562.22 3341.4 3560.54 3345.56 3555.89 3333.29C3551.53 3322 3552.62 3300.32 3557.67 3297.25Z" fill="#F0E7AF" fill-opacity="0.5"/>
<path d="M3496.39 3303.79C3499.46 3298.94 3530.45 3313.78 3539.26 3324.38C3542.52 3328.34 3544.5 3332.2 3543.51 3332.89C3539.55 3335.86 3494.02 3307.65 3496.39 3303.79Z" fill="#F0E7AF" fill-opacity="0.5"/>
<path d="M3550.84 3233.51C3558.76 3233.51 3559.94 3236.58 3559.94 3255.88C3559.94 3281.71 3552.32 3287.75 3544.3 3268.25C3536.48 3249.44 3539.55 3233.51 3550.84 3233.51Z" fill="#F0E7AF" fill-opacity="0.5"/>
<path d="M3524.11 3244.89C3528.17 3244.89 3530.45 3248.16 3529.56 3252.51C3527.77 3261.62 3518.67 3265.48 3514.51 3258.75C3510.55 3252.31 3515.7 3244.89 3524.11 3244.89Z" fill="#F0E7AF" fill-opacity="0.5"/>
<path d="M3573.51 3240.53C3577.27 3234.5 3589.54 3239.94 3589.54 3247.66C3589.54 3254.99 3577.76 3256.27 3573.6 3249.44C3572.12 3246.97 3572.02 3242.91 3573.51 3240.53Z" fill="#F0E7AF" fill-opacity="0.5"/>
<path d="M3503.62 3206.78C3532.82 3200.94 3539.45 3202.82 3539.45 3216.88C3539.45 3235.98 3522.63 3242.51 3503.62 3230.93C3485.51 3219.85 3485.51 3210.44 3503.62 3206.78Z" fill="#F0E7AF" fill-opacity="0.5"/>
<path d="M3617.65 3222.12C3619.63 3222.12 3621.32 3224 3621.32 3226.18C3621.32 3238.26 3569.94 3233.11 3567.57 3220.84C3563.51 3199.75 3585.38 3195.5 3604.79 3213.61C3609.83 3218.26 3615.57 3222.12 3617.65 3222.12Z" fill="#F0E7AF" fill-opacity="0.5"/>
<path d="M3552.82 3213.12C3547.67 3213.12 3545.69 3222.22 3555.59 3222.22C3565.39 3222.12 3558.06 3213.12 3552.82 3213.12Z" fill="#F0E7AF" fill-opacity="0.5"/>
<path d="M3564.6 3155.9C3573.8 3167.98 3573.11 3187.28 3563.01 3196.39C3547.97 3210.05 3539.35 3205.39 3539.65 3183.82C3539.75 3162.04 3555.69 3144.22 3564.6 3155.9Z" fill="#F0E7AF" fill-opacity="0.5"/>
<path d="M3516.49 3175.01C3522.92 3168.57 3532.33 3178.37 3528.76 3187.77C3527.28 3191.64 3524.21 3194.9 3521.83 3194.9C3515.2 3194.9 3511.24 3180.25 3516.49 3175.01Z" fill="#F0E7AF" fill-opacity="0.5"/>
<path d="M3585.48 3178.47C3594.89 3169.86 3594.99 3169.96 3593.4 3181.14C3592.51 3187.48 3588.25 3193.12 3583.9 3194.01C3573.11 3195.99 3573.8 3188.96 3585.48 3178.47Z" fill="#F0E7AF" fill-opacity="0.5"/>
</svg>
